<svg width="22" height="22" viewBox="0 0 22 22" fill="none" xmlns="http://www.w3.org/2000/svg">
<path d="M18.3333 1.83334H3.66665C2.65831 1.83334 1.84248 2.65834 1.84248 3.66667L1.83331 20.1667L5.49998 16.5H18.3333C19.3416 16.5 20.1666 15.675 20.1666 14.6667V3.66667C20.1666 2.65834 19.3416 1.83334 18.3333 1.83334ZM6.41665 8.25H15.5833C16.0875 8.25 16.5 8.6625 16.5 9.16667C16.5 9.67084 16.0875 10.0833 15.5833 10.0833H6.41665C5.91248 10.0833 5.49998 9.67084 5.49998 9.16667C5.49998 8.6625 5.91248 8.25 6.41665 8.25ZM11.9166 12.8333H6.41665C5.91248 12.8333 5.49998 12.4208 5.49998 11.9167C5.49998 11.4125 5.91248 11 6.41665 11H11.9166C12.4208 11 12.8333 11.4125 12.8333 11.9167C12.8333 12.4208 12.4208 12.8333 11.9166 12.8333ZM15.5833 7.33334H6.41665C5.91248 7.33334 5.49998 6.92084 5.49998 6.41667C5.49998 5.9125 5.91248 5.5 6.41665 5.5H15.5833C16.0875 5.5 16.5 5.9125 16.5 6.41667C16.5 6.92084 16.0875 7.33334 15.5833 7.33334Z" fill="#E5E5E5"/>
</svg>
