<svg width="24" height="24" viewBox="0 0 24 24" fill="none" xmlns="http://www.w3.org/2000/svg">
<path fill-rule="evenodd" clip-rule="evenodd" d="M12 22C17.523 22 22 17.523 22 12C22 6.477 17.523 2 12 2C6.477 2 2 6.477 2 12C2 17.523 6.477 22 12 22ZM10.861 9.363L10.731 9.598C10.586 9.857 10.514 9.986 10.402 10.071C10.29 10.156 10.15 10.188 9.87 10.251L9.616 10.309C8.632 10.531 8.14 10.643 8.023 11.019C7.906 11.396 8.241 11.788 8.912 12.572L9.086 12.775C9.276 12.998 9.371 13.109 9.414 13.247C9.457 13.385 9.443 13.534 9.414 13.831L9.388 14.101C9.286 15.148 9.236 15.671 9.542 15.904C9.848 16.137 10.309 15.924 11.23 15.501L11.469 15.391C11.73 15.271 11.861 15.21 12 15.21C12.139 15.21 12.27 15.27 12.531 15.39L12.77 15.5C13.69 15.925 14.152 16.137 14.458 15.904C14.764 15.671 14.714 15.148 14.612 14.102L14.586 13.831C14.557 13.534 14.543 13.385 14.586 13.247C14.629 13.109 14.724 12.997 14.914 12.775L15.088 12.572C15.758 11.788 16.094 11.396 15.977 11.019C15.86 10.643 15.368 10.531 14.384 10.309L14.13 10.251C13.85 10.188 13.71 10.156 13.598 10.071C13.486 9.986 13.414 9.857 13.27 9.598L13.139 9.363C12.632 8.454 12.379 8 12 8C11.621 8 11.368 8.454 10.861 9.363Z" fill="#E5E5E5"/>
</svg>
